<?xml version="1.0" encoding="UTF-8"?>
<svg xmlns="http://www.w3.org/2000/svg" version="1.1" viewBox="0 0 3000 1000">
  <!-- Generator: Adobe Illustrator 29.8.1, SVG Export Plug-In . SVG Version: 2.1.1 Build 2)  -->
  <defs>
    <style>
      .st0 {
        fill: #fabc1b;
      }

      .st1 {
        fill: #fefefd;
      }

      .st2 {
        fill: #fff;
      }

      .st3 {
        fill: #080809;
      }

      .st4 {
        fill: #709b3f;
        font-size: 260px;
        letter-spacing: .03em;
      }

      .st4, .st5 {
        font-family: MyriadPro-Bold, 'Myriad Pro';
        font-weight: 700;
      }

      .st5 {
        fill: #fbb040;
        font-size: 170px;
        letter-spacing: .05em;
      }
    </style>
  </defs>
  <g id="Layer_1">
    <g id="HVIT_BG">
      <rect class="st2" width="3000" height="1000"/>
    </g>
    <g>
      <rect class="st1" x="73.37" y="37.23" width="871.63" height="858.22"/>
      <path class="st3" d="M674.35,69.75c.62,8-3.84,14.92-7.1,21.79-22.38,47.25-108.67,166.28-102.36,212.85,5.69,42.01,86.13,40.49,116.61,40.02,35.5-.54,71.45-4.23,107.1-4.26,4.75,0,41.2.24,41.47,2.97-8.23,6.85-22.66,9.47-33.31,11.89-96.99,22-218.39-4.43-261.79,110.81-42.15,111.9,10.65,250.79,48.1,357.92,6.53,18.7,17.15,38.75,22.65,56.9.53,1.74,4.21,11.17,1.22,11.35-17.63-16.11-31.29-36.71-43.25-57.23-39-66.9-115.55-224.78-119.62-299.02-6.74-122.8,62.4-243.59,126.96-342.82,21.08-32.41,45.16-68.56,71.49-96.8,2.76-2.96,28.55-29.93,31.83-26.35Z"/>
      <path class="st3" d="M431.52,569.62l31.79,108.32-85.21,202.89c-.93,2.76-2.04,4.12-5.18,3.61l58.59-314.81Z"/>
      <path class="st0" d="M841.99,484.77c16.61,6.94,52.27,23.79,68.38,32.62,1.96,1.07,13.97,7.21,12.65,9.92-25.68,18.42-54.22,33.58-83.35,45.41l-5.16-4.21-55.11-40.22c9.13-5.82,26.2-18.78,34.81-25.27,13.79-10.4,17.89-16.1,20.12-17.5,2.68-1.68,2.94-2.72,7.67-.74Z"/>
      <path class="st0" d="M234.12,321.01l30.76,65.87,1.55,3.28-71.23,4.44c-21.82-19.63-35.59-46.93-52.48-70.93l-4.06-6.07s103.55,2.71,79.11,1.97"/>
      <path class="st0" d="M89.44,522.25c4.68-2.7,38.39-24.26,75.71-35.4,4.98-1.49,8.37-2.57,12.45-1.53,3.35.86,5.99,5.31,25.01,21.14,19.03,15.83,16.21,12.46,24.92,18.53,1.05.73,1.06,2.28.03,3.03l-54.47,39.98c-.55.41-1.29.48-1.91.18l-82.97-39.77c-.53-.25-2.02-1.31-2.02-1.31,0,0-2.14-1.61-1.25-2.23"/>
      <path class="st0" d="M308.09,168.92c11.41,5.5,35.48,22.98,46.2,31.18,7.04,5.39,13.49,11.8,20.72,17l-6.27,70.35c4.79,1.49-13.77-4.26-24.19-7.92-6.81-2.39-37.23-14.31-40.25-18.66-7.77-30.47-9.24-65.79-9.31-97.43l4.45,1.29c5.02,2.03,5.49,2.66,8.65,4.18Z"/>
      <path class="st0" d="M507.94,110.98c15.9,26.38,28.05,54.84,38.4,83.92l-36.34,54.12-47.57-54.08c11.88-29.49,24.49-58.99,42.59-84.96l1.6.17c.55.06,1.04.37,1.32.84Z"/>
      <path class="st0" d="M817.85,654.89s35.51,47.73,53.92,79.67l-101.07-8.43c-8.49-21.43-30.2-61.89-30.2-61.89,0,0,23.3-1.03,51.6-5.09,28.3-4.06,25.75-4.26,25.75-4.26Z"/>
      <path class="st0" d="M266.46,662.67c-6.15,10.39-10.85,18.89-19.69,36.02-8.84,17.13-15.17,32.81-16.76,34.72s-35,2.34-44.2,2.84c-13.74.74-42.47-.02-42.47-.02,0,0,6.1-8.21,9.27-13.8,3.17-5.59,25.67-48.01,44.28-64.86l69.58,5.09Z"/>
      <path class="st0" d="M648.04,766.73l64.48,31.22c3.36,24.74,6.38,59.19,2.19,94-1.14-.01-22.5-8.88-31.4-15.05-22.21-15.41-30.75-24.23-37.93-30.71-5-4.51-6.82-8.19-11.35-13.14,9.68-20.11,9.13-70.62,9.13-70.62l4.89,4.31Z"/>
      <path class="st3" d="M651.56,226.56c54.87-5.23,38.01,73.98-14.63,79.16-52.85,5.2-35.83-74.36,14.63-79.16Z"/>
      <path class="st0" d="M273.65,555.43l44.51,18.71,6.78,2.47c-7.12,6.27-27.51,33.69-32.52,41.47-1.93,1.33-65.99-16.79-66-16.79l5.34-6.86s21.49-21.46,37.1-39.58c1.46-.57,1.4-.94,4.79.59Z"/>
      <path class="st0" d="M743.64,441.27c4.32.98,9.38,2.11,29.53,8.71l7.86,3.29-47.81,42.54-21.13-9.52c-2.01-.91-4.06-1.74-6.13-2.5l-20.37-7.47c3-3.78,4.57-5.54,15.23-18.43,11.11-13.45,13.05-18.17,15.12-20.78,11.91.72,19.35,2.27,27.7,4.17Z"/>
      <path class="st0" d="M337.74,337.35c1.24.49,25.5,9.84,28.73,11.14.21.09.36.28.39.5l7.01,46.76c.07.46-.35.84-.8.72-16.39-4.31-44.76-7-50.07-9.23-.18-.08-.3-.23-.35-.42l-.77-2.87-17.2-59.79c-.14-.49.32-.95.81-.8"/>
      <path class="st0" d="M479.27,295.34s-11.42,28.42-20.9,52.38c-1.14.45-19.78-13.36-22.27-15.43-4.54-3.78-16.18-13.16-18.74-17.72l14.04-59.74c.2-.86.83-3.51.83-3.51,0,0,13.03,11.49,24.19,22.15,12.19,11.64,22.91,22.74,22.85,21.88Z"/>
      <path class="st0" d="M731.9,558.99l24.23,19.88c1.96,1.74,9.98,9.42,12.06,11.03l10.44,8.68s1.97.17-31.31,8.04-27.55,6.42-28.63,6.66c-15.36-20.4-34.86-38.34-34.86-38.34l24.07-7.4,24-8.54Z"/>
      <path class="st0" d="M298.77,444.51c1.69,1.03,25.47,27.72,26.37,29.48.47.92,3.1,2.91,2.7,3.67l-50.6,17.4-46.75-42.7,2.61-.37s21.97-4.54,34.66-6.67,28.39-3.65,28.39-3.65c1.51.39,1.81,2.35,2.62,2.84Z"/>
      <path class="st0" d="M373.09,658.53c-2.5,9.69-2.95,10.98-3.94,22.62-.91,10.81-1.06,18.92-1.06,18.92,0,0-.12.89-.57,1.51-.32.44-.75.79-1.26,1.01l-54.46,23.6s2.76-17.16,5.97-31.62,6.97-27.52,6.97-27.52l4.45-1.09,43.9-7.43Z"/>
      <path class="st0" d="M658.8,658.16c13,2.9,13.92,2.59,29.06,5.39l10.18,25.39,10.25,30.55-44.97-12.39-20.81-7.54-7.84-46.02c4.19.82,20.92,3.92,24.13,4.63Z"/>
      <path class="st0" d="M628.09,619.37c-1.7-5.16-3.21-8.53-4.4-10.92-.7-1.41-2.52-5.76-3.25-7.16-1.66-3.18-4.69-8.92-7.89-14.76,3.68.08,7.48.11,11.39.02,3.65-.08,6.47-.21,6.47-.21l16.4-1.96s5.77,8.72,9.16,13.12c5.75,7.47,11.84,16.75,17.2,24.02.02,1.01-20.25-.16-20.25-.16l-24.82-2Z"/>
      <path class="st0" d="M366.44,432.23s5.44-.01,16.73.96l15.71,33.43-36.93.72-27.95-33.63c13.43-1.73,32.44-1.5,32.44-1.5Z"/>
      <path class="st0" d="M581.08,637.72c14.96,5.83,16.69,6.4,16.69,6.4l4.89,46.18c-2.15-.02-7.18-2.64-9.31-3.2-1.68-.45-27.4-12.73-28.48-14.09-.17-.21-2.33-1.3-2.96-2.09l2.47-40.45s8.98,4.24,16.69,7.25Z"/>
      <path class="st0" d="M669.17,431.79c.89,0-2.74,4.15-2.73,4.14-4.9,7.64-20.94,33.43-20.94,33.43-4.68.34-21.25-2.78-35.62-2.73l6.36-11.24c2.57-4.53,4.91-9.19,7.03-13.95l3.58-8.06s14.85-1.6,42.32-1.6Z"/>
      <path class="st0" d="M418.64,364.81c2.29,1.02,28.86,19.73,29.38,21.43l-5.98,31.77-32.73-14.17-.32-38.71.88-5.4c3.18-.31,6.35,4,8.77,5.08Z"/>
      <polygon class="st0" points="358.44 507.07 383.84 526.42 355.36 546.67 313.21 524.28 315.14 523.57 358.44 507.07"/>
      <path class="st0" d="M675.44,515.55c5.91,3.09,17.64,8.17,19.61,10.33.24.26.21.67-.06.9-5.8,4.96-30.41,17.92-36.57,19.27-.62.14-1.27.01-1.81-.33l-29.17-18.75c-.39-.25-.39-.82,0-1.07l14.27-9.4c1.28-.85,2.54-1.73,3.77-2.66l10.15-7.69c.1-.08.23-.13.36-.13,2.9-.11,5.57,2.3,19.46,9.55Z"/>
      <path class="st0" d="M399.88,585.52c-.53,1.75-15.5,31.6-18.15,35.33-16.15.21-27.16,1.37-41.28,2.7-1.5-1.77,23.35-38.77,27.25-39.65l32.18,1.61Z"/>
      <path class="st0" d="M604.63,537.91l18.37,16.02,3.2,3.14-5.36,2.06c-3.64,1.4-7.36,2.57-11.13,3.53l-10.08,2.54-17.95-19.75,11.39-3.41c.82-.25,1.63-.52,2.44-.81l9.12-3.33Z"/>
      <path class="st0" d="M629.68,494.22l-25.75,20.02-24.27-11.64,7.91-6.39c2.34-1.89,4.57-3.9,6.7-6.02l4.67-4.66c5.23,1.29,9.39,2.35,15.68,4.34"/>
      <path class="st0" d="M575.42,584.86l12.72,1.95s.53,4.59,1.58,8.56c.83,3.91,2,8.79,2,8.79.98,3.92,1.52,8.85,2.73,11.84-9.47-3.9-21.93-8.8-31.4-12.7l-1.74-22.12,14.11,3.69Z"/>
      <path class="st0" d="M564.32,447.39c4.83-2.13,15.32-6.74,28.25-9.12.41-.08.8.2.87.62.74,4.31-6.59,22.83-10.39,25.68-.12.09-.27.13-.42.13l-18.81.25c-.44,0-.78-.36-.75-.8.28-3.65.07-11.5-.03-14.74-.03-.88.48-1.67,1.28-2.03Z"/>
    </g>
  </g>
  <g id="Revetalhagen">
    <text class="st4" transform="translate(957.61 621.94)"><tspan x="0" y="0">REVETALHAGEN</tspan></text>
  </g>
  <g id="NaKuHel">
    <text class="st5" transform="translate(1442.67 418.01)"><tspan x="0" y="0">NaKuHel</tspan></text>
  </g>
</svg>