<svg xmlns="http://www.w3.org/2000/svg" width="1024" height="1024" viewBox="0 0 1024 1024" version="1.1">
  <path d="M 346.500 190.647 C
                  330.256 192.531, 317.891 195.967, 306.500 201.765 C
                  293.251 208.508, 276.921 222.029, 267.074 234.410 L 262.230 240.500 249.365 239.850 C
                  242.289 239.492, 227.050 239.156, 215.500 239.103 C
                  196.286 239.016, 194.226 239.175, 191.277 240.973 C
                  187.795 243.096, 186.097 247.329, 187.695 249.905 C
                  190.492 254.412, 223.533 269.003, 239 272.561 C
                  250.873 275.292, 255.812 281.399, 258.545 296.731 C
                  261.320 312.298, 260.146 325.010, 252.841 358.500 C
                  239.679 418.834, 237.861 451.362, 245.565 488.660 C
                  251.537 517.573, 271.275 560.315, 289.728 584.297 C
                  306.694 606.345, 324.577 619.701, 352.138 630.907 C
                  371.674 638.849, 376.810 641.535, 394.689 653.155 C
                  403.051 658.589, 412.955 664.432, 416.697 666.139 C
                  424.111 669.520, 437.588 674.340, 442.750 675.456 C
                  444.538 675.843, 446 676.361, 446 676.608 C
                  446 678.144, 438.824 690.842, 433.811 698.178 C
                  421.515 716.170, 413.456 720.627, 384.299 725.563 C
                  373.738 727.350, 363.451 729.356, 361.439 730.020 C
                  357.251 731.402, 349.471 738.632, 347.996 742.512 C
                  345.873 748.095, 349.431 750.358, 359.963 750.126 C
                  363.558 750.046, 369.015 750.400, 372.088 750.912 C
                  377.787 751.861, 387.223 750.632, 406 746.496 C
                  417.030 744.066, 434.235 742.988, 441.457 744.275 C
                  444.781 744.866, 447.643 745.453, 447.818 745.577 C
                  447.994 745.702, 446.531 747.907, 444.568 750.479 C
                  440.354 755.999, 439.345 759.266, 440.839 762.546 C
                  442.412 765.999, 446.257 766.652, 450.230 764.141 C
                  459.702 758.156, 488.215 746.564, 504.538 742.063 C
                  541.398 731.898, 548.814 729.998, 551.615 729.999 C
                  555.390 730, 560 726.609, 560 723.832 C
                  560 720.703, 556.848 716.077, 553.160 713.793 C
                  550.321 712.036, 548.818 711.816, 543.160 712.331 C
                  539.497 712.665, 532.318 714.021, 527.208 715.344 C
                  522.097 716.668, 518.047 717.607, 518.208 717.430 C
                  546.322 686.543, 575.055 657.012, 578.907 655.048 C
                  584.873 652.004, 594.855 649.066, 604.957 647.380 C
                  610.206 646.504, 620.513 643.795, 627.862 641.360 L 641.224 636.933 648.362 641.427 C
                  652.288 643.898, 660.225 649.777, 666 654.491 C
                  677.387 663.785, 690.735 671.061, 699.799 672.916 C
                  710.677 675.141, 722.453 673.790, 731.384 669.291 L 736.267 666.831 746.384 670.826 C
                  759.346 675.946, 787.477 685.007, 790.319 684.978 C
                  791.518 684.966, 793.554 684.145, 794.843 683.154 C
                  798.797 680.112, 797.400 677.253, 788.500 670.181 C
                  767.387 653.406, 759.313 646.379, 744.651 632.021 C
                  731.943 619.576, 728.233 615.311, 725.928 610.500 C
                  724.347 607.200, 720.606 601.406, 717.614 597.624 C
                  710.181 588.227, 702.313 573.695, 698.280 561.916 C
                  694.687 551.424, 693.283 543.990, 689.468 515.278 C
                  683.809 472.684, 678.647 450.732, 668.357 425.500 C
                  650.148 380.851, 617.037 342.627, 575.256 318.021 C
                  569.340 314.537, 559.670 308.827, 553.766 305.331 C
                  547.862 301.836, 536.013 295.153, 527.434 290.480 C
                  518.856 285.807, 509.736 280.563, 507.168 278.826 C
                  500.535 274.339, 487.281 263.142, 476.628 253.026 C
                  463.620 240.673, 451.331 230.737, 437.364 221.280 C
                  411.089 203.488, 390.087 194.712, 366 191.458 C
                  355.736 190.071, 352.598 189.941, 346.500 190.647 M 338.028 202.072 C
                  322.522 204.836, 308.649 211.205, 294.352 222.124 C
                  284.509 229.642, 272 243.060, 272 246.102 C
                  272 246.463, 276.041 249.986, 280.980 253.929 C
                  285.919 257.873, 292.493 264.115, 295.588 267.800 C
                  299.283 272.198, 303.430 275.781, 307.655 278.227 C
                  318.106 284.278, 325.718 290.589, 339.500 304.629 C
                  350.193 315.523, 353.653 318.410, 359 320.903 C
                  370.226 326.136, 377.019 327.484, 392 327.451 C
                  408.043 327.416, 411.041 326.720, 437.185 316.970 C
                  475.473 302.689, 496.925 300.156, 527 306.363 C
                  533.325 307.668, 538.599 308.659, 538.721 308.564 C
                  538.842 308.469, 533.242 305.491, 526.275 301.946 C
                  506.693 291.981, 495.420 283.895, 472 263.012 C
                  447.435 241.108, 434.647 231.146, 419.653 222.231 C
                  403.433 212.588, 389.597 206.958, 373.500 203.452 C
                  364.727 201.541, 345.260 200.784, 338.028 202.072 M 214 252.592 C
                  229.358 259.118, 242.004 262.982, 251.411 264.022 C
                  265.214 265.549, 271.630 266.564, 280 268.545 C
                  282.016 269.022, 281.434 268.149, 277 264.036 C
                  268.962 256.580, 260.316 251.013, 256.636 250.923 C
                  254.911 250.881, 252.825 250.717, 252 250.558 C
                  251.175 250.400, 240.375 249.980, 228 249.625 L 205.500 248.980 214 252.592 M 263.970 280.293 C
                  272.389 295.210, 272.116 321.464, 263.133 361 C
                  251.005 414.373, 248.857 439.945, 253.609 474.358 C
                  255.456 487.732, 261.224 508.196, 264.584 513.291 C
                  275.452 529.776, 299.334 538.950, 324.061 536.138 C
                  350.612 533.119, 375.466 519.247, 408.514 489 C
                  421.979 476.676, 430.911 470.067, 434.160 470.023 C
                  438.114 469.969, 454.612 463.701, 459.716 460.313 C
                  465.580 456.420, 470.379 450.046, 471.986 444.015 C
                  473.297 439.093, 471.896 434.031, 467.201 426.721 C
                  460.455 416.218, 460.776 414.411, 470.063 410.636 C
                  475.897 408.265, 491.151 400.145, 494.500 397.627 L 496.500 396.124 494.500 394.612 C
                  493.400 393.780, 486.233 389.832, 478.574 385.839 C
                  461.375 376.873, 456.997 373.455, 448.425 362.301 C
                  439.788 351.064, 434.800 345.761, 428.269 340.877 C
                  420.476 335.049, 418.996 334.702, 410.139 336.617 C
                  392.173 340.501, 370.329 337.985, 354 330.150 C
                  347.416 326.991, 344.607 324.635, 331 310.861 C
                  308.831 288.419, 297.856 281.750, 277 278.050 C
                  270.125 276.830, 263.687 275.606, 262.693 275.330 C
                  261.187 274.913, 261.399 275.737, 263.970 280.293 M 493 313.614 C
                  477.473 314.920, 459.949 319.073, 443.034 325.456 C
                  439.440 326.812, 435.208 328.399, 433.629 328.982 L 430.758 330.042 434.629 332.852 C
                  439.717 336.545, 450.271 347.603, 457.813 357.144 C
                  465.059 366.310, 466.902 367.729, 483 376.542 C
                  489.875 380.305, 498.425 385.251, 502 387.532 C
                  517.851 397.648, 534.295 413.896, 551.051 436 C
                  555.012 441.225, 560.169 447.750, 562.512 450.500 C
                  567.513 456.372, 698.444 587.973, 697.819 586.500 C
                  697.586 585.950, 695.283 581.123, 692.701 575.774 C
                  685.751 561.373, 684.200 554.620, 678.970 516 C
                  674.507 483.042, 669.002 457.360, 662.462 438.984 C
                  658.858 428.857, 647.850 405.982, 642.739 398 C
                  623.947 368.650, 595.252 340.762, 569.619 326.936 C
                  563.740 323.765, 559.694 322.369, 553.625 321.417 C
                  549.156 320.717, 541.675 319.422, 537 318.540 C
                  512.420 313.903, 502.618 312.806, 493 313.614 M 498.500 407.084 C
                  495.200 409.300, 488.675 412.959, 484 415.216 C
                  479.325 417.473, 475.364 419.420, 475.199 419.544 C
                  475.033 419.668, 476.232 421.874, 477.864 424.446 C
                  491.655 446.192, 475.876 470.179, 442 478.969 C
                  437.325 480.182, 432.600 481.753, 431.500 482.458 C
                  430.400 483.164, 423.200 489.492, 415.500 496.521 C
                  386.294 523.180, 360.645 538.989, 337.512 544.590 C
                  327.354 547.049, 308.787 547.543, 299.238 545.608 C
                  290.722 543.883, 280.566 540.052, 275.750 536.750 C
                  274.238 535.712, 273 535.193, 273 535.596 C
                  273 536.934, 283.625 556.389, 288.512 564 C
                  303.022 586.595, 319.821 603.167, 339 613.807 C
                  342.025 615.485, 350.263 619.147, 357.308 621.946 C
                  374.992 628.970, 382.161 632.716, 399.500 643.995 C
                  417.368 655.618, 420.327 657.166, 434 662.041 C
                  461.080 671.699, 491.953 674.340, 515.917 669.050 C
                  528.239 666.330, 531.543 664.632, 538.669 657.365 C
                  548.091 647.756, 553.728 645.969, 560.381 650.484 L 564.041 652.967 568.819 649.534 C
                  571.448 647.646, 575.760 645.175, 578.402 644.042 C
                  583.737 641.755, 599.002 637.745, 609 636.004 C
                  632.395 631.930, 649.545 621.494, 662.562 603.411 C
                  667.993 595.867, 674.269 582.849, 673.829 580.040 C
                  673.644 578.862, 648.712 553.062, 616.990 521.221 C
                  556.620 460.625, 554.089 457.923, 540.436 439.500 C
                  529.549 424.810, 508.039 402.767, 504.846 403.028 C
                  504.656 403.044, 501.800 404.869, 498.500 407.084 M 680.967 589.673 C
                  677.382 600.742, 669.120 612.888, 658.313 622.981 C
                  654.142 626.876, 650.903 630.189, 651.115 630.343 C
                  651.327 630.498, 653.975 632.388, 657 634.543 C
                  660.025 636.699, 666.822 641.888, 672.105 646.075 C
                  687.072 657.937, 696.139 662.429, 706.844 663.287 C
                  714.276 663.883, 721.956 662.419, 729.352 658.996 C
                  737.003 655.454, 737.882 655.389, 742.981 657.991 C
                  747.524 660.308, 767.274 668.060, 767.658 667.676 C
                  767.801 667.532, 764.266 664.311, 759.803 660.517 C
                  748.028 650.509, 721.554 624.523, 717.483 618.977 C
                  714.561 614.996, 708.074 608.883, 684.353 587.757 C
                  682.207 585.846, 682.206 585.847, 680.967 589.673 M 544.792 665.750 C
                  537.030 673.717, 527.646 683.903, 522.911 689.500 C
                  521.050 691.700, 514.992 698.675, 509.449 705 C
                  503.907 711.325, 497.241 719.156, 494.637 722.401 C
                  489.487 728.821, 484.094 733.017, 471 740.795 C
                  457.582 748.765, 457.582 749.369, 471 743.533 C
                  477.875 740.542, 489.732 736.304, 497.350 734.114 C
                  504.967 731.925, 511.492 729.823, 511.850 729.443 C
                  512.207 729.062, 511.465 729.070, 510.201 729.459 C
                  506.716 730.531, 503 727.668, 503 723.910 C
                  503 719.115, 505.498 716.090, 537.431 682.203 C
                  548.469 670.490, 557.650 660.477, 557.833 659.953 C
                  558.017 659.429, 556.637 659, 554.767 659 C
                  551.886 659, 550.364 660.030, 544.792 665.750 M 452.568 683.750 C
                  448.595 695.595, 436.220 713.381, 426.468 721.259 C
                  417.334 728.637, 408.959 731.448, 382.500 736.015 C
                  370.363 738.109, 365.843 739.176, 366.466 739.799 C
                  366.798 740.132, 370.056 740.713, 373.706 741.090 C
                  379.281 741.667, 383.391 741.150, 399.421 737.854 C
                  420.898 733.437, 434.921 732.075, 440.122 733.901 C
                  441.980 734.553, 446.875 735.334, 451 735.637 C
                  457.918 736.145, 459.004 735.947, 465 733.084 L 471.500 729.981 465.500 730.740 C
                  462.200 731.158, 456.316 731.500, 452.424 731.500 C
                  446.370 731.500, 444.746 731.101, 441.174 728.736 C
                  437.471 726.284, 437 725.535, 437 722.103 C
                  437 718.804, 438.404 716.295, 446.544 705.042 C
                  451.794 697.787, 458.097 689.296, 460.551 686.175 L 465.014 680.500 462.257 679.868 C
                  455.281 678.270, 454.270 678.675, 452.568 683.750 M 510.500 680.593 C
                  506.650 681.321, 497.047 682.048, 489.159 682.208 L 474.818 682.500 469.403 690 C
                  454.011 711.318, 448 720.012, 448 720.956 C
                  448 721.530, 449.913 722.004, 452.250 722.008 C
                  458.446 722.020, 481.233 719.905, 483.072 719.148 C
                  483.937 718.791, 491.340 710.850, 499.523 701.500 C
                  507.706 692.150, 514.648 684.275, 514.951 684 C
                  516.860 682.262, 519.161 679.022, 518.405 679.135 C
                 517.907 679.209, 514.350 679.865, 510.500 680.593" stroke="none" fill="#060606" fill-rule="evenodd"/>
</svg>